# xmcd
#
# Track frame offsets:
#	150
#	23105
#	40792
#
# Disc length: 825 seconds
#
# Revision: 0
# Processed by: cddbd v1.5.1PL0 Copyright (c) Steve Scherf et al.
# Submitted via: dBpowerAMP V4.0
#
DISCID=19033703
DTITLE=Alexander O'Neal - Lord Give Me Power
DYEAR=1999
DGENRE=Gospel
TTITLE0=Lord Give Me Power (Bishop Brad Ol' Skool Mix)
TTITLE1=Lord Give Me Power (Marcus Johnson RnB Mix)
TTITLE2=Lord Give Me Power (Bishop Brad Gospel Mix)
EXTD=
EXTT0=
EXTT1=
EXTT2=
PLAYORDER=
